<svg xmlns="http://www.w3.org/2000/svg" xmlns:xlink="http://www.w3.org/1999/xlink" width="25.101" height="28.722" viewBox="0 0 25.101 28.722"><defs><style>.a{fill:url(#a);}.b{fill:url(#b);}.c{fill:url(#c);}.d{fill:url(#d);}</style><linearGradient id="a" y1="0.5" x2="1" y2="0.5" gradientUnits="objectBoundingBox"><stop offset="0" stop-color="#63be6b"/><stop offset="0.506" stop-color="#5bbc6a"/><stop offset="1" stop-color="#4ab96a"/></linearGradient><linearGradient id="b" y1="0.5" x2="0.999" y2="0.5" gradientUnits="objectBoundingBox"><stop offset="0" stop-color="#3ec6f2"/><stop offset="1" stop-color="#45afe3"/></linearGradient><linearGradient id="c" y1="0.5" x2="1" y2="0.5" gradientUnits="objectBoundingBox"><stop offset="0" stop-color="#faa51a"/><stop offset="0.387" stop-color="#fab716"/><stop offset="0.741" stop-color="#fac412"/><stop offset="1" stop-color="#fac80f"/></linearGradient><linearGradient id="d" y1="0.5" x2="1" y2="0.5" gradientUnits="objectBoundingBox"><stop offset="0" stop-color="#ec3b50"/><stop offset="1" stop-color="#e7515b"/></linearGradient></defs><path class="a" d="M16.1,8.754.923.079A.611.611,0,0,0,.308.085.607.607,0,0,0,0,.614s.006.8.012,2.116L11.068,13.786Z" transform="translate(0 0.001)"/><path class="b" d="M.2,44.4c.018,4.75.074,16.279.1,22.019L11.262,55.456Z" transform="translate(-0.188 -41.668)"/><path class="c" d="M193.526,147.265l-8.687-4.965-5.039,5.033,5.685,5.685,8.047-4.688a.615.615,0,0,0,.308-.529A.623.623,0,0,0,193.526,147.265Z" transform="translate(-168.738 -133.545)"/><path class="d" d="M1.7,235.157c.012,2.049.018,3.359.018,3.359a.6.6,0,0,0,.308.529.611.611,0,0,0,.615,0l15.707-9.161L12.663,224.2Z" transform="translate(-1.595 -210.406)"/></svg>